<svg width="64" height="64" viewBox="0 0 100 100" fill="none" xmlns="http://www.w3.org/2000/svg">
  <defs>
    <linearGradient id="cGrad" x1="50" y1="0" x2="50" y2="100" gradientUnits="userSpaceOnUse">
      <stop offset="0%"   stop-color="#00D2C8" />
      <stop offset="50%"  stop-color="#2979FF" />
      <stop offset="100%" stop-color="#8B2BE2" />
    </linearGradient>
    <linearGradient id="tagGrad" x1="20" y1="50" x2="80" y2="50" gradientUnits="userSpaceOnUse">
      <stop offset="0%"   stop-color="#2979FF" />
      <stop offset="100%" stop-color="#7B2FF7" />
    </linearGradient>
  </defs>

  <!-- Thick C body -->
  <path
    d="
      M 72 18
      C 72 18 62 8 50 8
      C 35 8 18 22 18 50
      C 18 78 35 92 50 92
      C 62 92 72 84 74 78
      L 68 68
      C 64 74 57 78 50 78
      C 41 78 30 68 30 50
      C 30 32 41 22 50 22
      C 57 22 64 26 68 32
      Z
    "
    fill="url(#cGrad)"
  />

  <!-- Wavy tail -->
  <path d="M 68 68 L 80 82 L 64 76 Z" fill="url(#cGrad)" />

  <!-- </> symbol -->
  <text x="50" y="56" text-anchor="middle" fill="url(#tagGrad)"
    font-size="22" font-weight="800" font-family="'Courier New', Courier, monospace" letter-spacing="-1">
    &lt;/&gt;
  </text>
</svg>